<?xml version="1.0" encoding="UTF-8" standalone="no"?>
<!DOCTYPE svg PUBLIC "-//W3C//DTD SVG 1.1//EN"
 "http://www.w3.org/Graphics/SVG/1.1/DTD/svg11.dtd">
<!-- Generated by graphviz version 2.36.0 (20140111.2315)
 -->
<!-- Title: DON_compute Pages: 1 -->
<svg width="282pt" height="816pt"
 viewBox="0.00 0.00 282.00 816.00" xmlns="http://www.w3.org/2000/svg" xmlns:xlink="http://www.w3.org/1999/xlink">
<g id="graph0" class="graph" transform="scale(1 1) rotate(0) translate(4 812)">
<title>DON_compute</title>
<polygon fill="white" stroke="none" points="-4,4 -4,-812 278,-812 278,4 -4,4"/>
<g id="clust1" class="cluster"><title>cluster_ComputeNode</title>
<polygon fill="none" stroke="black" points="47,-744 47,-800 167,-800 167,-744 47,-744"/>
</g>
<g id="clust2" class="cluster"><title>cluster_Nova</title>
<polygon fill="lightgrey" stroke="black" points="22,-344 22,-696 252,-696 252,-344 22,-344"/>
</g>
<g id="clust3" class="cluster"><title>cluster_VMs</title>
<polygon fill="lightgrey" stroke="black" points="30,-548 30,-688 184,-688 184,-548 30,-548"/>
</g>
<g id="clust4" class="cluster"><title>cluster_LinuxBridge</title>
<polygon fill="lightgrey" stroke="black" points="30,-352 30,-492 244,-492 244,-352 30,-352"/>
</g>
<g id="clust5" class="cluster"><title>cluster_OVS</title>
<polygon fill="lightgrey" stroke="black" points="8,-8 8,-304 266,-304 266,-8 8,-8"/>
</g>
<g id="clust6" class="cluster"><title>cluster_compute_br_int</title>
<polygon fill="lightgrey" stroke="black" points="16,-156 16,-296 258,-296 258,-156 16,-156"/>
</g>
<g id="clust7" class="cluster"><title>cluster_compute_br_tun</title>
<polygon fill="lightgrey" stroke="black" points="81,-16 81,-100 193,-100 193,-16 81,-16"/>
</g>
<!-- ComputeNode -->
<g id="node1" class="node"><title>ComputeNode</title>
<polygon fill="red" stroke="none" points="63,-756 63,-788 151,-788 151,-756 63,-756"/>
<polygon fill="yellow" stroke="none" points="68,-761 68,-783 146,-783 146,-761 68,-761"/>
<text text-anchor="start" x="73.5" y="-769.5" font-family="Helvetica,sans-Serif" font-size="10.00">Compute Node</text>
</g>
<!-- VMs -->
<g id="node2" class="node"><title>VMs</title>
<polygon fill="white" stroke="none" points="46,-560 46,-676 168,-676 168,-560 46,-560"/>
<polygon fill="white" stroke="none" points="51,-649 51,-671 163,-671 163,-649 51,-649"/>
<text text-anchor="start" x="96.5" y="-657.5" font-family="Helvetica,sans-Serif" font-size="10.00">VMs</text>
<polygon fill="#ff9933" stroke="none" points="51,-621 51,-644 105,-644 105,-621 51,-621"/>
<polygon fill="none" stroke="black" points="51,-621 51,-644 105,-644 105,-621 51,-621"/>
<text text-anchor="start" x="68.5" y="-630" font-family="Helvetica,sans-Serif" font-size="10.00">vm1</text>
<polygon fill="#ff9933" stroke="none" points="110,-621 110,-644 163,-644 163,-621 110,-621"/>
<polygon fill="none" stroke="black" points="110,-621 110,-644 163,-644 163,-621 110,-621"/>
<text text-anchor="start" x="127" y="-630" font-family="Helvetica,sans-Serif" font-size="10.00">vm2</text>
<polygon fill="#c079f3" stroke="none" points="51,-593 51,-616 105,-616 105,-593 51,-593"/>
<polygon fill="none" stroke="black" points="51,-593 51,-616 105,-616 105,-593 51,-593"/>
<text text-anchor="start" x="60.5" y="-602" font-family="Helvetica,sans-Serif" font-size="10.00">private1</text>
<polygon fill="#c079f3" stroke="none" points="110,-593 110,-616 163,-616 163,-593 110,-593"/>
<polygon fill="none" stroke="black" points="110,-593 110,-616 163,-616 163,-593 110,-593"/>
<text text-anchor="start" x="119" y="-602" font-family="Helvetica,sans-Serif" font-size="10.00">private1</text>
<polygon fill="#c079f3" stroke="none" points="51,-565 51,-588 105,-588 105,-565 51,-565"/>
<polygon fill="none" stroke="black" points="51,-565 51,-588 105,-588 105,-565 51,-565"/>
<text text-anchor="start" x="57.5" y="-574" font-family="Helvetica,sans-Serif" font-size="10.00">10.10.0.3</text>
<polygon fill="#c079f3" stroke="none" points="110,-565 110,-588 163,-588 163,-565 110,-565"/>
<polygon fill="none" stroke="black" points="110,-565 110,-588 163,-588 163,-565 110,-565"/>
<text text-anchor="start" x="116" y="-574" font-family="Helvetica,sans-Serif" font-size="10.00">10.10.0.4</text>
</g>
<!-- ComputeNode&#45;&gt;VMs -->
<!-- LinuxBridge -->
<g id="node3" class="node"><title>LinuxBridge</title>
<polygon fill="white" stroke="none" points="46,-364 46,-480 228,-480 228,-364 46,-364"/>
<polygon fill="white" stroke="none" points="51,-453 51,-475 223,-475 223,-453 51,-453"/>
<text text-anchor="start" x="109.5" y="-461.5" font-family="Helvetica,sans-Serif" font-size="10.00">Linux Bridge</text>
<polygon fill="#c079f3" stroke="none" points="51,-425 51,-448 136,-448 136,-425 51,-425"/>
<polygon fill="none" stroke="black" points="51,-425 51,-448 136,-448 136,-425 51,-425"/>
<text text-anchor="start" x="60" y="-434" font-family="Helvetica,sans-Serif" font-size="10.00">tap71ac5bef&#45;7c</text>
<polygon fill="#c079f3" stroke="none" points="51,-397 51,-420 136,-420 136,-397 51,-397"/>
<polygon fill="none" stroke="black" points="51,-397 51,-420 136,-420 136,-397 51,-397"/>
<text text-anchor="start" x="58.5" y="-406" font-family="Helvetica,sans-Serif" font-size="10.00">qbr8aa60600&#45;7b</text>
<polygon fill="#c079f3" stroke="none" points="141,-397 141,-420 223,-420 223,-397 141,-397"/>
<polygon fill="none" stroke="black" points="141,-397 141,-420 223,-420 223,-397 141,-397"/>
<text text-anchor="start" x="148.5" y="-406" font-family="Helvetica,sans-Serif" font-size="10.00">qbr71ac5bef&#45;7c</text>
<polygon fill="#c079f3" stroke="none" points="51,-369 51,-392 136,-392 136,-369 51,-369"/>
<polygon fill="none" stroke="black" points="51,-369 51,-392 136,-392 136,-369 51,-369"/>
<text text-anchor="start" x="57.5" y="-378" font-family="Helvetica,sans-Serif" font-size="10.00">qvb8aa60600&#45;7b</text>
<polygon fill="#c079f3" stroke="none" points="141,-369 141,-392 223,-392 223,-369 141,-369"/>
<polygon fill="none" stroke="black" points="141,-369 141,-392 223,-392 223,-369 141,-369"/>
<text text-anchor="start" x="147" y="-378" font-family="Helvetica,sans-Serif" font-size="10.00">qvb71ac5bef&#45;7c</text>
</g>
<!-- VMs&#45;&gt;LinuxBridge -->
<g id="edge2" class="edge"><title>VMs:101004:s&#45;&gt;LinuxBridge:tap71ac5bef_7c:n</title>
<path fill="none" stroke="#0066cc" stroke-width="4" d="M137,-564C137,-509.276 93,-503.724 93,-449"/>
</g>
<!-- compute_br_int -->
<g id="node4" class="node"><title>compute_br_int</title>
<polygon fill="white" stroke="none" points="32,-168 32,-284 242,-284 242,-168 32,-168"/>
<polygon fill="white" stroke="none" points="37,-257 37,-279 237,-279 237,-257 37,-257"/>
<text text-anchor="start" x="112.5" y="-265.5" font-family="Helvetica,sans-Serif" font-size="10.00">OVS br_int</text>
<polygon fill="#c079f3" stroke="none" points="37,-229 37,-252 136,-252 136,-229 37,-229"/>
<polygon fill="none" stroke="black" points="37,-229 37,-252 136,-252 136,-229 37,-229"/>
<text text-anchor="start" x="43.5" y="-238" font-family="Helvetica,sans-Serif" font-size="10.00">[6] qvo8aa60600&#45;7b</text>
<polygon fill="#c079f3" stroke="none" points="141,-229 141,-252 237,-252 237,-229 141,-229"/>
<polygon fill="none" stroke="black" points="141,-229 141,-252 237,-252 237,-229 141,-229"/>
<text text-anchor="start" x="147" y="-238" font-family="Helvetica,sans-Serif" font-size="10.00">[7] qvo71ac5bef&#45;7c</text>
<polygon fill="#c079f3" stroke="none" points="37,-201 37,-224 136,-224 136,-201 37,-201"/>
<polygon fill="none" stroke="black" points="37,-201 37,-224 136,-224 136,-201 37,-201"/>
<text text-anchor="start" x="60.5" y="-210" font-family="Helvetica,sans-Serif" font-size="10.00">VLAN tag:2</text>
<polygon fill="#c079f3" stroke="none" points="141,-201 141,-224 237,-224 237,-201 141,-201"/>
<polygon fill="none" stroke="black" points="141,-201 141,-224 237,-224 237,-201 141,-201"/>
<text text-anchor="start" x="163" y="-210" font-family="Helvetica,sans-Serif" font-size="10.00">VLAN tag:2</text>
<polygon fill="#ffcc00" stroke="none" points="37,-173 37,-196 237,-196 237,-173 37,-173"/>
<polygon fill="none" stroke="black" points="37,-173 37,-196 237,-196 237,-173 37,-173"/>
<text text-anchor="start" x="109.5" y="-182" font-family="Helvetica,sans-Serif" font-size="10.00">[1] patch&#45;tun</text>
</g>
<!-- LinuxBridge&#45;&gt;compute_br_int -->
<g id="edge3" class="edge"><title>LinuxBridge:qvb8aa60600_7b:s&#45;&gt;compute_br_int:qvo8aa60600_7b:n</title>
<path fill="none" stroke="#0066cc" stroke-width="4" d="M93,-368C93,-316.794 86,-304.206 86,-253"/>
</g>
<!-- LinuxBridge&#45;&gt;compute_br_int -->
<g id="edge4" class="edge"><title>LinuxBridge:qvb71ac5bef_7c:s&#45;&gt;compute_br_int:qvo71ac5bef_7c:n</title>
<path fill="none" stroke="#0066cc" stroke-width="4" d="M182,-368C182,-316.794 189,-304.206 189,-253"/>
</g>
<!-- compute_br_tun -->
<g id="node5" class="node"><title>compute_br_tun</title>
<polygon fill="white" stroke="none" points="97,-28 97,-88 177,-88 177,-28 97,-28"/>
<polygon fill="white" stroke="none" points="102,-61 102,-83 172,-83 172,-61 102,-61"/>
<text text-anchor="start" x="111" y="-69.5" font-family="Helvetica,sans-Serif" font-size="10.00">OVS br_tun</text>
<polygon fill="#ffcc00" stroke="none" points="102,-33 102,-56 172,-56 172,-33 102,-33"/>
<polygon fill="none" stroke="black" points="102,-33 102,-56 172,-56 172,-33 102,-33"/>
<text text-anchor="start" x="111" y="-42" font-family="Helvetica,sans-Serif" font-size="10.00">[1] patch&#45;int</text>
</g>
<!-- compute_br_int&#45;&gt;compute_br_tun -->
<g id="edge5" class="edge"><title>compute_br_int:patch_tun:s&#45;&gt;compute_br_tun:patch_int:n</title>
<path fill="none" stroke="#0066cc" stroke-width="4" d="M137,-172C137,-120.889 137,-108.111 137,-57"/>
</g>
</g>
</svg>
