<?xml version="1.0" encoding="UTF-8" standalone="no"?>
<!DOCTYPE svg PUBLIC "-//W3C//DTD SVG 1.1//EN"
 "http://www.w3.org/Graphics/SVG/1.1/DTD/svg11.dtd">
<!-- Generated by graphviz version 2.36.0 (20140111.2315)
 -->
<!-- Title: DON_network Pages: 1 -->
<svg width="284pt" height="704pt"
 viewBox="0.00 0.00 284.00 704.00" xmlns="http://www.w3.org/2000/svg" xmlns:xlink="http://www.w3.org/1999/xlink">
<g id="graph0" class="graph" transform="scale(1 1) rotate(0) translate(4 700)">
<title>DON_network</title>
<polygon fill="white" stroke="none" points="-4,4 -4,-700 280,-700 280,4 -4,4"/>
<g id="clust1" class="cluster"><title>cluster_NetworkNode</title>
<polygon fill="none" stroke="black" points="26,-632 26,-688 144,-688 144,-632 26,-632"/>
</g>
<g id="clust2" class="cluster"><title>cluster_OVS</title>
<polygon fill="lightgrey" stroke="black" points="8,-8 8,-584 268,-584 268,-8 8,-8"/>
</g>
<g id="clust3" class="cluster"><title>cluster_br_ex</title>
<polygon fill="lightgrey" stroke="black" points="16,-436 16,-576 154,-576 154,-436 16,-436"/>
</g>
<g id="clust4" class="cluster"><title>cluster_network_br_int</title>
<polygon fill="lightgrey" stroke="black" points="16,-156 16,-380 260,-380 260,-156 16,-156"/>
</g>
<g id="clust5" class="cluster"><title>cluster_network_br_tun</title>
<polygon fill="lightgrey" stroke="black" points="83,-16 83,-100 195,-100 195,-16 83,-16"/>
</g>
<!-- NetworkNode -->
<g id="node1" class="node"><title>NetworkNode</title>
<polygon fill="red" stroke="none" points="42.5,-644 42.5,-676 127.5,-676 127.5,-644 42.5,-644"/>
<polygon fill="yellow" stroke="none" points="48,-649 48,-671 123,-671 123,-649 48,-649"/>
<text text-anchor="start" x="53.5" y="-657.5" font-family="Helvetica,sans-Serif" font-size="10.00">Network Node</text>
</g>
<!-- br_ex -->
<g id="node2" class="node"><title>br_ex</title>
<polygon fill="white" stroke="none" points="32.5,-448 32.5,-564 137.5,-564 137.5,-448 32.5,-448"/>
<polygon fill="white" stroke="none" points="38,-537 38,-559 133,-559 133,-537 38,-537"/>
<text text-anchor="start" x="61" y="-545.5" font-family="Helvetica,sans-Serif" font-size="10.00">OVS br_ex</text>
<polygon fill="#ff9933" stroke="none" points="38,-509 38,-532 133,-532 133,-509 38,-509"/>
<polygon fill="none" stroke="black" points="38,-509 38,-532 133,-532 133,-509 38,-509"/>
<text text-anchor="start" x="70" y="-518" font-family="Helvetica,sans-Serif" font-size="10.00">router1</text>
<polygon fill="#ff9933" stroke="none" points="38,-481 38,-504 133,-504 133,-481 38,-481"/>
<polygon fill="none" stroke="black" points="38,-481 38,-504 133,-504 133,-481 38,-481"/>
<text text-anchor="start" x="55.5" y="-490" font-family="Helvetica,sans-Serif" font-size="10.00">172.24.4.3/24</text>
<polygon fill="#ff9933" stroke="none" points="38,-453 38,-476 133,-476 133,-453 38,-453"/>
<polygon fill="none" stroke="black" points="38,-453 38,-476 133,-476 133,-453 38,-453"/>
<text text-anchor="start" x="44.5" y="-462" font-family="Helvetica,sans-Serif" font-size="10.00">[2] qg&#45;757bf552&#45;73</text>
</g>
<!-- NetworkNode&#45;&gt;br_ex -->
<!-- network_br_int -->
<g id="node3" class="node"><title>network_br_int</title>
<polygon fill="white" stroke="none" points="32.5,-168 32.5,-368 243.5,-368 243.5,-168 32.5,-168"/>
<polygon fill="white" stroke="none" points="38,-341 38,-363 239,-363 239,-341 38,-341"/>
<text text-anchor="start" x="114" y="-349.5" font-family="Helvetica,sans-Serif" font-size="10.00">OVS br_int</text>
<polygon fill="#c079f3" stroke="none" points="38,-313 38,-336 133,-336 133,-313 38,-313"/>
<polygon fill="none" stroke="black" points="38,-313 38,-336 133,-336 133,-313 38,-313"/>
<text text-anchor="start" x="44.5" y="-322" font-family="Helvetica,sans-Serif" font-size="10.00">[8] qr&#45;43b83157&#45;3b</text>
<polygon fill="#c079f3" stroke="none" points="138,-313 138,-336 239,-336 239,-313 138,-313"/>
<polygon fill="none" stroke="black" points="138,-313 138,-336 239,-336 239,-313 138,-313"/>
<text text-anchor="start" x="144" y="-322" font-family="Helvetica,sans-Serif" font-size="10.00">[10] tap1e1c73c9&#45;35</text>
<polygon fill="#c079f3" stroke="none" points="38,-285 38,-308 133,-308 133,-285 38,-285"/>
<polygon fill="none" stroke="black" points="38,-285 38,-308 133,-308 133,-285 38,-285"/>
<text text-anchor="start" x="59.5" y="-294" font-family="Helvetica,sans-Serif" font-size="10.00">VLAN tag:2</text>
<polygon fill="#c079f3" stroke="none" points="138,-285 138,-308 239,-308 239,-285 138,-285"/>
<polygon fill="none" stroke="black" points="138,-285 138,-308 239,-308 239,-285 138,-285"/>
<text text-anchor="start" x="162.5" y="-294" font-family="Helvetica,sans-Serif" font-size="10.00">VLAN tag:2</text>
<polygon fill="#c079f3" stroke="none" points="38,-257 38,-280 133,-280 133,-257 38,-257"/>
<polygon fill="none" stroke="black" points="38,-257 38,-280 133,-280 133,-257 38,-257"/>
<text text-anchor="start" x="58" y="-266" font-family="Helvetica,sans-Serif" font-size="10.00">10.10.0.1/24</text>
<polygon fill="#c079f3" stroke="none" points="138,-257 138,-280 239,-280 239,-257 138,-257"/>
<polygon fill="none" stroke="black" points="138,-257 138,-280 239,-280 239,-257 138,-257"/>
<text text-anchor="start" x="161" y="-266" font-family="Helvetica,sans-Serif" font-size="10.00">10.10.0.5/24</text>
<polygon fill="#c079f3" stroke="none" points="38,-229 38,-252 239,-252 239,-229 38,-229"/>
<polygon fill="none" stroke="black" points="38,-229 38,-252 239,-252 239,-229 38,-229"/>
<text text-anchor="start" x="121" y="-238" font-family="Helvetica,sans-Serif" font-size="10.00">private1</text>
<polygon fill="#ff9933" stroke="none" points="38,-201 38,-224 239,-224 239,-201 38,-201"/>
<polygon fill="none" stroke="black" points="38,-201 38,-224 239,-224 239,-201 38,-201"/>
<text text-anchor="start" x="123" y="-210" font-family="Helvetica,sans-Serif" font-size="10.00">router1</text>
<polygon fill="#ffcc00" stroke="none" points="38,-173 38,-196 239,-196 239,-173 38,-173"/>
<polygon fill="none" stroke="black" points="38,-173 38,-196 239,-196 239,-173 38,-173"/>
<text text-anchor="start" x="111" y="-182" font-family="Helvetica,sans-Serif" font-size="10.00">[1] patch&#45;tun</text>
</g>
<!-- br_ex&#45;&gt;network_br_int -->
<g id="edge3" class="edge"><title>br_ex:qg_757bf552_73:s&#45;&gt;network_br_int:qr_43b83157_3b:n</title>
<path fill="none" stroke="#0066cc" stroke-width="4" d="M86,-452C86,-400.887 85,-388.113 85,-337"/>
</g>
<!-- network_br_tun -->
<g id="node4" class="node"><title>network_br_tun</title>
<polygon fill="white" stroke="none" points="99,-28 99,-88 179,-88 179,-28 99,-28"/>
<polygon fill="white" stroke="none" points="104,-61 104,-83 174,-83 174,-61 104,-61"/>
<text text-anchor="start" x="113" y="-69.5" font-family="Helvetica,sans-Serif" font-size="10.00">OVS br_tun</text>
<polygon fill="#ffcc00" stroke="none" points="104,-33 104,-56 174,-56 174,-33 104,-33"/>
<polygon fill="none" stroke="black" points="104,-33 104,-56 174,-56 174,-33 104,-33"/>
<text text-anchor="start" x="113" y="-42" font-family="Helvetica,sans-Serif" font-size="10.00">[1] patch&#45;int</text>
</g>
<!-- network_br_int&#45;&gt;network_br_tun -->
<g id="edge2" class="edge"><title>network_br_int:patch_tun:s&#45;&gt;network_br_tun:patch_int:n</title>
<path fill="none" stroke="#0066cc" stroke-width="4" d="M139,-172C139,-120.889 139,-108.111 139,-57"/>
</g>
</g>
</svg>
