<?xml version="1.0" encoding="UTF-8" standalone="no"?>
<!DOCTYPE svg PUBLIC "-//W3C//DTD SVG 1.1//EN"
 "http://www.w3.org/Graphics/SVG/1.1/DTD/svg11.dtd">
<!-- Generated by graphviz version 2.36.0 (20140111.2315)
 -->
<!-- Title: DON_DON Pages: 1 -->
<svg width="1710pt" height="916pt"
 viewBox="0.00 0.00 1710.00 916.00" xmlns="http://www.w3.org/2000/svg" xmlns:xlink="http://www.w3.org/1999/xlink">
<g id="graph0" class="graph" transform="scale(1 1) rotate(0) translate(4 912)">
<title>DON_DON</title>
<polygon fill="white" stroke="none" points="-4,4 -4,-912 1706,-912 1706,4 -4,4"/>
<g id="clust1" class="cluster"><title>cluster_DONComputeNode</title>
<polygon fill="lightgrey" stroke="black" points="8,-8 8,-900 816,-900 816,-8 8,-8"/>
</g>
<g id="clust2" class="cluster"><title>cluster_ComputeNode</title>
<polygon fill="lightgrey" stroke="black" points="352,-836 352,-892 472,-892 472,-836 352,-836"/>
</g>
<g id="clust3" class="cluster"><title>cluster_Nova</title>
<polygon fill="lightgrey" stroke="black" points="79,-394 79,-788 741,-788 741,-394 79,-394"/>
</g>
<g id="clust4" class="cluster"><title>cluster_VMs</title>
<polygon fill="lightgrey" stroke="black" points="202,-640 202,-780 622,-780 622,-640 202,-640"/>
</g>
<g id="clust5" class="cluster"><title>cluster_LinuxBridge</title>
<polygon fill="lightgrey" stroke="black" points="87,-402 87,-542 733,-542 733,-402 87,-402"/>
</g>
<g id="clust6" class="cluster"><title>cluster_OVS</title>
<polygon fill="lightgrey" stroke="black" points="16,-16 16,-312 808,-312 808,-16 16,-16"/>
</g>
<g id="clust7" class="cluster"><title>cluster_compute_br_int</title>
<polygon fill="lightgrey" stroke="black" points="24,-164 24,-304 800,-304 800,-164 24,-164"/>
</g>
<g id="clust8" class="cluster"><title>cluster_compute_br_tun</title>
<polygon fill="lightgrey" stroke="black" points="343,-24 343,-108 481,-108 481,-24 343,-24"/>
</g>
<g id="clust9" class="cluster"><title>cluster_DONNetworkNode</title>
<polygon fill="lightgrey" stroke="black" points="824,-176 824,-900 1694,-900 1694,-176 824,-176"/>
</g>
<g id="clust11" class="cluster"><title>cluster_OVS</title>
<polygon fill="lightgrey" stroke="black" points="832,-184 832,-788 1686,-788 1686,-184 832,-184"/>
</g>
<g id="clust12" class="cluster"><title>cluster_br_ex</title>
<polygon fill="lightgrey" stroke="black" points="1088,-640 1088,-780 1326,-780 1326,-640 1088,-640"/>
</g>
<g id="clust13" class="cluster"><title>cluster_network_br_int</title>
<polygon fill="lightgrey" stroke="black" points="840,-360 840,-584 1678,-584 1678,-360 840,-360"/>
</g>
<g id="clust14" class="cluster"><title>cluster_network_br_tun</title>
<polygon fill="lightgrey" stroke="black" points="1189,-192 1189,-276 1327,-276 1327,-192 1189,-192"/>
</g>
<g id="clust10" class="cluster"><title>cluster_NetworkNode</title>
<polygon fill="lightgrey" stroke="black" points="1148,-836 1148,-892 1266,-892 1266,-836 1148,-836"/>
</g>
<!-- ComputeNode -->
<g id="node1" class="node"><title>ComputeNode</title>
<polygon fill="red" stroke="none" points="368,-848 368,-880 456,-880 456,-848 368,-848"/>
<polygon fill="yellow" stroke="none" points="373,-853 373,-875 451,-875 451,-853 373,-853"/>
<text text-anchor="start" x="378.5" y="-861.5" font-family="Helvetica,sans-Serif" font-size="10.00">Compute Node</text>
</g>
<!-- VMs -->
<g id="node2" class="node"><title>VMs</title>
<polygon fill="white" stroke="none" points="218.5,-652 218.5,-768 605.5,-768 605.5,-652 218.5,-652"/>
<polygon fill="white" stroke="none" points="224,-741 224,-763 601,-763 601,-741 224,-741"/>
<text text-anchor="start" x="402" y="-749.5" font-family="Helvetica,sans-Serif" font-size="10.00">VMs</text>
<polygon fill="#909090" stroke="none" points="224,-713 224,-736 273,-736 273,-713 224,-713"/>
<polygon fill="none" stroke="black" points="224,-713 224,-736 273,-736 273,-713 224,-713"/>
<text text-anchor="start" x="234" y="-722" font-family="Helvetica,sans-Serif" font-size="10.00">VM1&#45;1</text>
<polygon fill="#909090" stroke="none" points="278,-713 278,-736 326,-736 326,-713 278,-713"/>
<polygon fill="none" stroke="black" points="278,-713 278,-736 326,-736 326,-713 278,-713"/>
<text text-anchor="start" x="287.5" y="-722" font-family="Helvetica,sans-Serif" font-size="10.00">VM1&#45;2</text>
<polygon fill="#909090" stroke="none" points="331,-713 331,-736 379,-736 379,-713 331,-713"/>
<polygon fill="none" stroke="black" points="331,-713 331,-736 379,-736 379,-713 331,-713"/>
<text text-anchor="start" x="340.5" y="-722" font-family="Helvetica,sans-Serif" font-size="10.00">VM3&#45;1</text>
<polygon fill="#909090" stroke="none" points="384,-713 384,-736 432,-736 432,-713 384,-713"/>
<polygon fill="none" stroke="black" points="384,-713 384,-736 432,-736 432,-713 384,-713"/>
<text text-anchor="start" x="393.5" y="-722" font-family="Helvetica,sans-Serif" font-size="10.00">VM3&#45;2</text>
<polygon fill="#909090" stroke="none" points="437,-713 437,-736 601,-736 601,-713 437,-713"/>
<polygon fill="none" stroke="black" points="437,-713 437,-736 601,-736 601,-713 437,-713"/>
<text text-anchor="start" x="508.5" y="-722" font-family="Helvetica,sans-Serif" font-size="10.00">VM4</text>
<polygon fill="#909090" stroke="none" points="224,-685 224,-708 273,-708 273,-685 224,-685"/>
<polygon fill="none" stroke="black" points="224,-685 224,-708 273,-708 273,-685 224,-685"/>
<text text-anchor="start" x="231" y="-694" font-family="Helvetica,sans-Serif" font-size="10.00">private1</text>
<polygon fill="#909090" stroke="none" points="278,-685 278,-708 326,-708 326,-685 278,-685"/>
<polygon fill="none" stroke="black" points="278,-685 278,-708 326,-708 326,-685 278,-685"/>
<text text-anchor="start" x="284.5" y="-694" font-family="Helvetica,sans-Serif" font-size="10.00">private1</text>
<polygon fill="#909090" stroke="none" points="331,-685 331,-708 379,-708 379,-685 331,-685"/>
<polygon fill="none" stroke="black" points="331,-685 331,-708 379,-708 379,-685 331,-685"/>
<text text-anchor="start" x="337.5" y="-694" font-family="Helvetica,sans-Serif" font-size="10.00">private2</text>
<polygon fill="#909090" stroke="none" points="384,-685 384,-708 432,-708 432,-685 384,-685"/>
<polygon fill="none" stroke="black" points="384,-685 384,-708 432,-708 432,-685 384,-685"/>
<text text-anchor="start" x="390.5" y="-694" font-family="Helvetica,sans-Serif" font-size="10.00">private2</text>
<polygon fill="#909090" stroke="none" points="437,-685 437,-708 495,-708 495,-685 437,-685"/>
<polygon fill="none" stroke="black" points="437,-685 437,-708 495,-708 495,-685 437,-685"/>
<text text-anchor="start" x="453" y="-694" font-family="Helvetica,sans-Serif" font-size="10.00">public</text>
<polygon fill="#909090" stroke="none" points="500,-685 500,-708 548,-708 548,-685 500,-685"/>
<polygon fill="none" stroke="black" points="500,-685 500,-708 548,-708 548,-685 500,-685"/>
<text text-anchor="start" x="506.5" y="-694" font-family="Helvetica,sans-Serif" font-size="10.00">private2</text>
<polygon fill="#909090" stroke="none" points="553,-685 553,-708 601,-708 601,-685 553,-685"/>
<polygon fill="none" stroke="black" points="553,-685 553,-708 601,-708 601,-685 553,-685"/>
<text text-anchor="start" x="559.5" y="-694" font-family="Helvetica,sans-Serif" font-size="10.00">private1</text>
<polygon fill="#b2f379" stroke="none" points="224,-657 224,-680 273,-680 273,-657 224,-657"/>
<polygon fill="none" stroke="black" points="224,-657 224,-680 273,-680 273,-657 224,-657"/>
<text text-anchor="start" x="230.5" y="-666" font-family="Helvetica,sans-Serif" font-size="10.00">10.0.2.3</text>
<polygon fill="#909090" stroke="none" points="278,-657 278,-680 326,-680 326,-657 278,-657"/>
<polygon fill="none" stroke="black" points="278,-657 278,-680 326,-680 326,-657 278,-657"/>
<text text-anchor="start" x="284" y="-666" font-family="Helvetica,sans-Serif" font-size="10.00">10.0.2.4</text>
<polygon fill="#b2f379" stroke="none" points="331,-657 331,-680 379,-680 379,-657 331,-657"/>
<polygon fill="none" stroke="black" points="331,-657 331,-680 379,-680 379,-657 331,-657"/>
<text text-anchor="start" x="337" y="-666" font-family="Helvetica,sans-Serif" font-size="10.00">10.0.3.3</text>
<polygon fill="#909090" stroke="none" points="384,-657 384,-680 432,-680 432,-657 384,-657"/>
<polygon fill="none" stroke="black" points="384,-657 384,-680 432,-680 432,-657 384,-657"/>
<text text-anchor="start" x="390" y="-666" font-family="Helvetica,sans-Serif" font-size="10.00">10.0.3.4</text>
<polygon fill="#909090" stroke="none" points="437,-657 437,-680 495,-680 495,-657 437,-657"/>
<polygon fill="none" stroke="black" points="437,-657 437,-680 495,-680 495,-657 437,-657"/>
<text text-anchor="start" x="443" y="-666" font-family="Helvetica,sans-Serif" font-size="10.00">172.24.4.5</text>
<polygon fill="#909090" stroke="none" points="500,-657 500,-680 548,-680 548,-657 500,-657"/>
<polygon fill="none" stroke="black" points="500,-657 500,-680 548,-680 548,-657 500,-657"/>
<text text-anchor="start" x="506" y="-666" font-family="Helvetica,sans-Serif" font-size="10.00">10.0.3.6</text>
<polygon fill="#909090" stroke="none" points="553,-657 553,-680 601,-680 601,-657 553,-657"/>
<polygon fill="none" stroke="black" points="553,-657 553,-680 601,-680 601,-657 553,-657"/>
<text text-anchor="start" x="559" y="-666" font-family="Helvetica,sans-Serif" font-size="10.00">10.0.2.6</text>
</g>
<!-- ComputeNode&#45;&gt;VMs -->
<!-- LinuxBridge -->
<g id="node3" class="node"><title>LinuxBridge</title>
<polygon fill="white" stroke="none" points="103,-414 103,-530 717,-530 717,-414 103,-414"/>
<polygon fill="white" stroke="none" points="108,-503 108,-525 712,-525 712,-503 108,-503"/>
<text text-anchor="start" x="382.5" y="-511.5" font-family="Helvetica,sans-Serif" font-size="10.00">Linux Bridge</text>
<polygon fill="#b2f379" stroke="none" points="108,-475 108,-498 191,-498 191,-475 108,-475"/>
<polygon fill="none" stroke="black" points="108,-475 108,-498 191,-498 191,-475 108,-475"/>
<text text-anchor="start" x="116" y="-484" font-family="Helvetica,sans-Serif" font-size="10.00">tape0d697f2&#45;cb</text>
<polygon fill="#909090" stroke="none" points="196,-475 196,-498 273,-498 273,-475 196,-475"/>
<polygon fill="none" stroke="black" points="196,-475 196,-498 273,-498 273,-475 196,-475"/>
<text text-anchor="start" x="203" y="-484" font-family="Helvetica,sans-Serif" font-size="10.00">tapbd4f1f72&#45;5f</text>
<polygon fill="#b2f379" stroke="none" points="278,-475 278,-498 362,-498 362,-475 278,-475"/>
<polygon fill="none" stroke="black" points="278,-475 278,-498 362,-498 362,-475 278,-475"/>
<text text-anchor="start" x="285" y="-484" font-family="Helvetica,sans-Serif" font-size="10.00">tapbd96ca7d&#45;5e</text>
<polygon fill="#909090" stroke="none" points="367,-475 367,-498 449,-498 449,-475 367,-475"/>
<polygon fill="none" stroke="black" points="367,-475 367,-498 449,-498 449,-475 367,-475"/>
<text text-anchor="start" x="374.5" y="-484" font-family="Helvetica,sans-Serif" font-size="10.00">tap4441e3a6&#45;f2</text>
<polygon fill="#909090" stroke="none" points="454,-475 454,-498 538,-498 538,-475 454,-475"/>
<polygon fill="none" stroke="black" points="454,-475 454,-498 538,-498 538,-475 454,-475"/>
<text text-anchor="start" x="461" y="-484" font-family="Helvetica,sans-Serif" font-size="10.00">tapce3d7b20&#45;1d</text>
<polygon fill="#909090" stroke="none" points="543,-475 543,-498 625,-498 625,-475 543,-475"/>
<polygon fill="none" stroke="black" points="543,-475 543,-498 625,-498 625,-475 543,-475"/>
<text text-anchor="start" x="550.5" y="-484" font-family="Helvetica,sans-Serif" font-size="10.00">tapf0841d56&#45;02</text>
<polygon fill="#909090" stroke="none" points="630,-475 630,-498 712,-498 712,-475 630,-475"/>
<polygon fill="none" stroke="black" points="630,-475 630,-498 712,-498 712,-475 630,-475"/>
<text text-anchor="start" x="637.5" y="-484" font-family="Helvetica,sans-Serif" font-size="10.00">tapfbb76083&#45;60</text>
<polygon fill="#b2f379" stroke="none" points="108,-447 108,-470 191,-470 191,-447 108,-447"/>
<polygon fill="none" stroke="black" points="108,-447 108,-470 191,-470 191,-447 108,-447"/>
<text text-anchor="start" x="116" y="-456" font-family="Helvetica,sans-Serif" font-size="10.00">qbre0d697f2&#45;cb</text>
<polygon fill="#909090" stroke="none" points="196,-447 196,-470 273,-470 273,-447 196,-447"/>
<polygon fill="none" stroke="black" points="196,-447 196,-470 273,-470 273,-447 196,-447"/>
<text text-anchor="start" x="203" y="-456" font-family="Helvetica,sans-Serif" font-size="10.00">qbrbd4f1f72&#45;5f</text>
<polygon fill="#b2f379" stroke="none" points="278,-447 278,-470 362,-470 362,-447 278,-447"/>
<polygon fill="none" stroke="black" points="278,-447 278,-470 362,-470 362,-447 278,-447"/>
<text text-anchor="start" x="285" y="-456" font-family="Helvetica,sans-Serif" font-size="10.00">qbrbd96ca7d&#45;5e</text>
<polygon fill="#909090" stroke="none" points="367,-447 367,-470 449,-470 449,-447 367,-447"/>
<polygon fill="none" stroke="black" points="367,-447 367,-470 449,-470 449,-447 367,-447"/>
<text text-anchor="start" x="374.5" y="-456" font-family="Helvetica,sans-Serif" font-size="10.00">qbr4441e3a6&#45;f2</text>
<polygon fill="#909090" stroke="none" points="454,-447 454,-470 538,-470 538,-447 454,-447"/>
<polygon fill="none" stroke="black" points="454,-447 454,-470 538,-470 538,-447 454,-447"/>
<text text-anchor="start" x="461" y="-456" font-family="Helvetica,sans-Serif" font-size="10.00">qbrce3d7b20&#45;1d</text>
<polygon fill="#909090" stroke="none" points="543,-447 543,-470 625,-470 625,-447 543,-447"/>
<polygon fill="none" stroke="black" points="543,-447 543,-470 625,-470 625,-447 543,-447"/>
<text text-anchor="start" x="550.5" y="-456" font-family="Helvetica,sans-Serif" font-size="10.00">qbrf0841d56&#45;02</text>
<polygon fill="#909090" stroke="none" points="630,-447 630,-470 712,-470 712,-447 630,-447"/>
<polygon fill="none" stroke="black" points="630,-447 630,-470 712,-470 712,-447 630,-447"/>
<text text-anchor="start" x="637.5" y="-456" font-family="Helvetica,sans-Serif" font-size="10.00">qbrfbb76083&#45;60</text>
<polygon fill="#b2f379" stroke="none" points="108,-419 108,-442 191,-442 191,-419 108,-419"/>
<polygon fill="none" stroke="black" points="108,-419 108,-442 191,-442 191,-419 108,-419"/>
<text text-anchor="start" x="114.5" y="-428" font-family="Helvetica,sans-Serif" font-size="10.00">qvbe0d697f2&#45;cb</text>
<polygon fill="#909090" stroke="none" points="196,-419 196,-442 273,-442 273,-419 196,-419"/>
<polygon fill="none" stroke="black" points="196,-419 196,-442 273,-442 273,-419 196,-419"/>
<text text-anchor="start" x="202" y="-428" font-family="Helvetica,sans-Serif" font-size="10.00">qvbbd4f1f72&#45;5f</text>
<polygon fill="#b2f379" stroke="none" points="278,-419 278,-442 362,-442 362,-419 278,-419"/>
<polygon fill="none" stroke="black" points="278,-419 278,-442 362,-442 362,-419 278,-419"/>
<text text-anchor="start" x="284" y="-428" font-family="Helvetica,sans-Serif" font-size="10.00">qvbbd96ca7d&#45;5e</text>
<polygon fill="#909090" stroke="none" points="367,-419 367,-442 449,-442 449,-419 367,-419"/>
<polygon fill="none" stroke="black" points="367,-419 367,-442 449,-442 449,-419 367,-419"/>
<text text-anchor="start" x="373" y="-428" font-family="Helvetica,sans-Serif" font-size="10.00">qvb4441e3a6&#45;f2</text>
<polygon fill="#909090" stroke="none" points="454,-419 454,-442 538,-442 538,-419 454,-419"/>
<polygon fill="none" stroke="black" points="454,-419 454,-442 538,-442 538,-419 454,-419"/>
<text text-anchor="start" x="460" y="-428" font-family="Helvetica,sans-Serif" font-size="10.00">qvbce3d7b20&#45;1d</text>
<polygon fill="#909090" stroke="none" points="543,-419 543,-442 625,-442 625,-419 543,-419"/>
<polygon fill="none" stroke="black" points="543,-419 543,-442 625,-442 625,-419 543,-419"/>
<text text-anchor="start" x="549" y="-428" font-family="Helvetica,sans-Serif" font-size="10.00">qvbf0841d56&#45;02</text>
<polygon fill="#909090" stroke="none" points="630,-419 630,-442 712,-442 712,-419 630,-419"/>
<polygon fill="none" stroke="black" points="630,-419 630,-442 712,-442 712,-419 630,-419"/>
<text text-anchor="start" x="636" y="-428" font-family="Helvetica,sans-Serif" font-size="10.00">qvbfbb76083&#45;60</text>
</g>
<!-- VMs&#45;&gt;LinuxBridge -->
<g id="edge2" class="edge"><title>VMs:10023:s&#45;&gt;LinuxBridge:tape0d697f2_cb:n</title>
<path fill="none" stroke="#009900" stroke-width="4" d="M248,-656C248,-573.508 149,-581.492 149,-499"/>
</g>
<!-- VMs&#45;&gt;LinuxBridge -->
<g id="edge3" class="edge"><title>VMs:10024:s&#45;&gt;LinuxBridge:tapbd4f1f72_5f:n</title>
<path fill="none" stroke="#909090" stroke-width="4" d="M302,-656C302,-579.958 234,-575.042 234,-499"/>
</g>
<!-- VMs&#45;&gt;LinuxBridge -->
<g id="edge4" class="edge"><title>VMs:10033:s&#45;&gt;LinuxBridge:tapbd96ca7d_5e:n</title>
<path fill="none" stroke="#009900" stroke-width="4" d="M355,-656C355,-584.509 320,-570.491 320,-499"/>
</g>
<!-- VMs&#45;&gt;LinuxBridge -->
<g id="edge5" class="edge"><title>VMs:10034:s&#45;&gt;LinuxBridge:tap4441e3a6_f2:n</title>
<path fill="none" stroke="#909090" stroke-width="4" d="M408,-656C408,-586.222 408,-568.778 408,-499"/>
</g>
<!-- VMs&#45;&gt;LinuxBridge -->
<g id="edge6" class="edge"><title>VMs:1722445:s&#45;&gt;LinuxBridge:tapce3d7b20_1d:n</title>
<path fill="none" stroke="#909090" stroke-width="4" d="M466,-656C466,-584.96 496,-570.04 496,-499"/>
</g>
<!-- VMs&#45;&gt;LinuxBridge -->
<g id="edge7" class="edge"><title>VMs:10036:s&#45;&gt;LinuxBridge:tapf0841d56_02:n</title>
<path fill="none" stroke="#909090" stroke-width="4" d="M524,-656C524,-581.3 584,-573.7 584,-499"/>
</g>
<!-- VMs&#45;&gt;LinuxBridge -->
<g id="edge8" class="edge"><title>VMs:10026:s&#45;&gt;LinuxBridge:tapfbb76083_60:n</title>
<path fill="none" stroke="#909090" stroke-width="4" d="M577,-656C577,-574.672 671,-580.328 671,-499"/>
</g>
<!-- compute_br_int -->
<g id="node4" class="node"><title>compute_br_int</title>
<polygon fill="white" stroke="none" points="40.5,-176 40.5,-292 783.5,-292 783.5,-176 40.5,-176"/>
<polygon fill="white" stroke="none" points="46,-265 46,-287 779,-287 779,-265 46,-265"/>
<text text-anchor="start" x="388" y="-273.5" font-family="Helvetica,sans-Serif" font-size="10.00">OVS br_int</text>
<polygon fill="#b2f379" stroke="none" points="46,-237 46,-260 143,-260 143,-237 46,-237"/>
<polygon fill="none" stroke="black" points="46,-237 46,-260 143,-260 143,-237 46,-237"/>
<text text-anchor="start" x="52.5" y="-246" font-family="Helvetica,sans-Serif" font-size="10.00">[9] qvoe0d697f2&#45;cb</text>
<polygon fill="#909090" stroke="none" points="148,-237 148,-260 245,-260 245,-237 148,-237"/>
<polygon fill="none" stroke="black" points="148,-237 148,-260 245,-260 245,-237 148,-237"/>
<text text-anchor="start" x="154" y="-246" font-family="Helvetica,sans-Serif" font-size="10.00">[10] qvobd4f1f72&#45;5f</text>
<polygon fill="#b2f379" stroke="none" points="250,-237 250,-260 353,-260 353,-237 250,-237"/>
<polygon fill="none" stroke="black" points="250,-237 250,-260 353,-260 353,-237 250,-237"/>
<text text-anchor="start" x="256" y="-246" font-family="Helvetica,sans-Serif" font-size="10.00">[11] qvobd96ca7d&#45;5e</text>
<polygon fill="#909090" stroke="none" points="358,-237 358,-260 459,-260 459,-237 358,-237"/>
<polygon fill="none" stroke="black" points="358,-237 358,-260 459,-260 459,-237 358,-237"/>
<text text-anchor="start" x="364" y="-246" font-family="Helvetica,sans-Serif" font-size="10.00">[12] qvo4441e3a6&#45;f2</text>
<polygon fill="#909090" stroke="none" points="464,-237 464,-260 567,-260 567,-237 464,-237"/>
<polygon fill="none" stroke="black" points="464,-237 464,-260 567,-260 567,-237 464,-237"/>
<text text-anchor="start" x="470" y="-246" font-family="Helvetica,sans-Serif" font-size="10.00">[17] qvoce3d7b20&#45;1d</text>
<polygon fill="#909090" stroke="none" points="572,-237 572,-260 673,-260 673,-237 572,-237"/>
<polygon fill="none" stroke="black" points="572,-237 572,-260 673,-260 673,-237 572,-237"/>
<text text-anchor="start" x="578" y="-246" font-family="Helvetica,sans-Serif" font-size="10.00">[16] qvof0841d56&#45;02</text>
<polygon fill="#909090" stroke="none" points="678,-237 678,-260 779,-260 779,-237 678,-237"/>
<polygon fill="none" stroke="black" points="678,-237 678,-260 779,-260 779,-237 678,-237"/>
<text text-anchor="start" x="684" y="-246" font-family="Helvetica,sans-Serif" font-size="10.00">[15] qvofbb76083&#45;60</text>
<polygon fill="#909090" stroke="none" points="46,-209 46,-232 143,-232 143,-209 46,-209"/>
<polygon fill="none" stroke="black" points="46,-209 46,-232 143,-232 143,-209 46,-209"/>
<text text-anchor="start" x="68.5" y="-218" font-family="Helvetica,sans-Serif" font-size="10.00">VLAN tag:2</text>
<polygon fill="#909090" stroke="none" points="148,-209 148,-232 245,-232 245,-209 148,-209"/>
<polygon fill="none" stroke="black" points="148,-209 148,-232 245,-232 245,-209 148,-209"/>
<text text-anchor="start" x="170.5" y="-218" font-family="Helvetica,sans-Serif" font-size="10.00">VLAN tag:2</text>
<polygon fill="#909090" stroke="none" points="250,-209 250,-232 353,-232 353,-209 250,-209"/>
<polygon fill="none" stroke="black" points="250,-209 250,-232 353,-232 353,-209 250,-209"/>
<text text-anchor="start" x="275.5" y="-218" font-family="Helvetica,sans-Serif" font-size="10.00">VLAN tag:3</text>
<polygon fill="#909090" stroke="none" points="358,-209 358,-232 459,-232 459,-209 358,-209"/>
<polygon fill="none" stroke="black" points="358,-209 358,-232 459,-232 459,-209 358,-209"/>
<text text-anchor="start" x="382.5" y="-218" font-family="Helvetica,sans-Serif" font-size="10.00">VLAN tag:3</text>
<polygon fill="#909090" stroke="none" points="464,-209 464,-232 567,-232 567,-209 464,-209"/>
<polygon fill="none" stroke="black" points="464,-209 464,-232 567,-232 567,-209 464,-209"/>
<text text-anchor="start" x="489.5" y="-218" font-family="Helvetica,sans-Serif" font-size="10.00">VLAN tag:4</text>
<polygon fill="#909090" stroke="none" points="572,-209 572,-232 673,-232 673,-209 572,-209"/>
<polygon fill="none" stroke="black" points="572,-209 572,-232 673,-232 673,-209 572,-209"/>
<text text-anchor="start" x="596.5" y="-218" font-family="Helvetica,sans-Serif" font-size="10.00">VLAN tag:3</text>
<polygon fill="#909090" stroke="none" points="678,-209 678,-232 779,-232 779,-209 678,-209"/>
<polygon fill="none" stroke="black" points="678,-209 678,-232 779,-232 779,-209 678,-209"/>
<text text-anchor="start" x="702.5" y="-218" font-family="Helvetica,sans-Serif" font-size="10.00">VLAN tag:2</text>
<polygon fill="#909090" stroke="none" points="46,-181 46,-204 779,-204 779,-181 46,-181"/>
<polygon fill="none" stroke="black" points="46,-181 46,-204 779,-204 779,-181 46,-181"/>
<text text-anchor="start" x="385" y="-190" font-family="Helvetica,sans-Serif" font-size="10.00">[1] patch&#45;tun</text>
</g>
<!-- LinuxBridge&#45;&gt;compute_br_int -->
<g id="edge9" class="edge"><title>LinuxBridge:qvbe0d697f2_cb:s&#45;&gt;compute_br_int:qvoe0d697f2_cb:n</title>
<path fill="none" stroke="#009900" stroke-width="4" d="M149,-418C149,-344.064 94,-334.936 94,-261"/>
</g>
<!-- LinuxBridge&#45;&gt;compute_br_int -->
<g id="edge10" class="edge"><title>LinuxBridge:qvbbd4f1f72_5f:s&#45;&gt;compute_br_int:qvobd4f1f72_5f:n</title>
<path fill="none" stroke="#909090" stroke-width="4" d="M234,-418C234,-346.207 196,-332.793 196,-261"/>
</g>
<!-- LinuxBridge&#45;&gt;compute_br_int -->
<g id="edge11" class="edge"><title>LinuxBridge:qvbbd96ca7d_5e:s&#45;&gt;compute_br_int:qvobd96ca7d_5e:n</title>
<path fill="none" stroke="#009900" stroke-width="4" d="M320,-418C320,-347.713 301,-331.287 301,-261"/>
</g>
<!-- LinuxBridge&#45;&gt;compute_br_int -->
<g id="edge12" class="edge"><title>LinuxBridge:qvb4441e3a6_f2:s&#45;&gt;compute_br_int:qvo4441e3a6_f2:n</title>
<path fill="none" stroke="#909090" stroke-width="4" d="M408,-418C408,-348.222 408,-330.778 408,-261"/>
</g>
<!-- LinuxBridge&#45;&gt;compute_br_int -->
<g id="edge13" class="edge"><title>LinuxBridge:qvbce3d7b20_1d:s&#45;&gt;compute_br_int:qvoce3d7b20_1d:n</title>
<path fill="none" stroke="#909090" stroke-width="4" d="M496,-418C496,-347.658 516,-331.342 516,-261"/>
</g>
<!-- LinuxBridge&#45;&gt;compute_br_int -->
<g id="edge14" class="edge"><title>LinuxBridge:qvbf0841d56_02:s&#45;&gt;compute_br_int:qvof0841d56_02:n</title>
<path fill="none" stroke="#909090" stroke-width="4" d="M584,-418C584,-346.102 623,-332.898 623,-261"/>
</g>
<!-- LinuxBridge&#45;&gt;compute_br_int -->
<g id="edge15" class="edge"><title>LinuxBridge:qvbfbb76083_60:s&#45;&gt;compute_br_int:qvofbb76083_60:n</title>
<path fill="none" stroke="#909090" stroke-width="4" d="M671,-418C671,-343.613 729,-335.387 729,-261"/>
</g>
<!-- compute_br_tun -->
<g id="node5" class="node"><title>compute_br_tun</title>
<polygon fill="white" stroke="none" points="359.5,-36 359.5,-96 464.5,-96 464.5,-36 359.5,-36"/>
<polygon fill="white" stroke="none" points="365,-69 365,-91 460,-91 460,-69 365,-69"/>
<text text-anchor="start" x="386.5" y="-77.5" font-family="Helvetica,sans-Serif" font-size="10.00">OVS br_tun</text>
<polygon fill="#909090" stroke="none" points="365,-41 365,-64 460,-64 460,-41 365,-41"/>
<polygon fill="none" stroke="black" points="365,-41 365,-64 460,-64 460,-41 365,-41"/>
<text text-anchor="start" x="386.5" y="-50" font-family="Helvetica,sans-Serif" font-size="10.00">[1] patch&#45;int</text>
</g>
<!-- compute_br_int&#45;&gt;compute_br_tun -->
<g id="edge16" class="edge"><title>compute_br_int:patch_tun:s&#45;&gt;compute_br_tun:patch_int:n</title>
<path fill="none" stroke="#909090" stroke-width="4" d="M413,-180C413,-128.889 413,-116.111 413,-65"/>
</g>
<!-- NetworkNode -->
<g id="node6" class="node"><title>NetworkNode</title>
<polygon fill="red" stroke="none" points="1164.5,-848 1164.5,-880 1249.5,-880 1249.5,-848 1164.5,-848"/>
<polygon fill="yellow" stroke="none" points="1170,-853 1170,-875 1245,-875 1245,-853 1170,-853"/>
<text text-anchor="start" x="1175.5" y="-861.5" font-family="Helvetica,sans-Serif" font-size="10.00">Network Node</text>
</g>
<!-- br_ex -->
<g id="node7" class="node"><title>br_ex</title>
<polygon fill="white" stroke="none" points="1104,-652 1104,-768 1310,-768 1310,-652 1104,-652"/>
<polygon fill="white" stroke="none" points="1109,-741 1109,-763 1305,-763 1305,-741 1109,-741"/>
<text text-anchor="start" x="1182.5" y="-749.5" font-family="Helvetica,sans-Serif" font-size="10.00">OVS br_ex</text>
<polygon fill="#909090" stroke="none" points="1109,-713 1109,-736 1204,-736 1204,-713 1109,-713"/>
<polygon fill="none" stroke="black" points="1109,-713 1109,-736 1204,-736 1204,-713 1109,-713"/>
<text text-anchor="start" x="1141" y="-722" font-family="Helvetica,sans-Serif" font-size="10.00">router1</text>
<polygon fill="#909090" stroke="none" points="1209,-713 1209,-736 1305,-736 1305,-713 1209,-713"/>
<polygon fill="none" stroke="black" points="1209,-713 1209,-736 1305,-736 1305,-713 1209,-713"/>
<text text-anchor="start" x="1241.5" y="-722" font-family="Helvetica,sans-Serif" font-size="10.00">router2</text>
<polygon fill="#909090" stroke="none" points="1109,-685 1109,-708 1204,-708 1204,-685 1109,-685"/>
<polygon fill="none" stroke="black" points="1109,-685 1109,-708 1204,-708 1204,-685 1109,-685"/>
<text text-anchor="start" x="1126.5" y="-694" font-family="Helvetica,sans-Serif" font-size="10.00">172.24.4.3/24</text>
<polygon fill="#909090" stroke="none" points="1209,-685 1209,-708 1305,-708 1305,-685 1209,-685"/>
<polygon fill="none" stroke="black" points="1209,-685 1209,-708 1305,-708 1305,-685 1209,-685"/>
<text text-anchor="start" x="1227" y="-694" font-family="Helvetica,sans-Serif" font-size="10.00">172.24.4.4/24</text>
<polygon fill="#909090" stroke="none" points="1109,-657 1109,-680 1204,-680 1204,-657 1109,-657"/>
<polygon fill="none" stroke="black" points="1109,-657 1109,-680 1204,-680 1204,-657 1109,-657"/>
<text text-anchor="start" x="1115.5" y="-666" font-family="Helvetica,sans-Serif" font-size="10.00">[2] qg&#45;eb8796fb&#45;83</text>
<polygon fill="#909090" stroke="none" points="1209,-657 1209,-680 1305,-680 1305,-657 1209,-657"/>
<polygon fill="none" stroke="black" points="1209,-657 1209,-680 1305,-680 1305,-657 1209,-657"/>
<text text-anchor="start" x="1215" y="-666" font-family="Helvetica,sans-Serif" font-size="10.00">[3] qg&#45;e2b1b0d3&#45;a8</text>
</g>
<!-- NetworkNode&#45;&gt;br_ex -->
<!-- network_br_int -->
<g id="node8" class="node"><title>network_br_int</title>
<polygon fill="white" stroke="none" points="856,-372 856,-572 1662,-572 1662,-372 856,-372"/>
<polygon fill="white" stroke="none" points="861,-545 861,-567 1657,-567 1657,-545 861,-545"/>
<text text-anchor="start" x="1234.5" y="-553.5" font-family="Helvetica,sans-Serif" font-size="10.00">OVS br_int</text>
<polygon fill="#b2f379" stroke="none" points="861,-517 861,-540 956,-540 956,-517 861,-517"/>
<polygon fill="none" stroke="black" points="861,-517 861,-540 956,-540 956,-517 861,-517"/>
<text text-anchor="start" x="867.5" y="-526" font-family="Helvetica,sans-Serif" font-size="10.00">[8] qr&#45;09a15e37&#45;ca</text>
<polygon fill="#909090" stroke="none" points="961,-517 961,-540 1055,-540 1055,-517 961,-517"/>
<polygon fill="none" stroke="black" points="961,-517 961,-540 1055,-540 1055,-517 961,-517"/>
<text text-anchor="start" x="967" y="-526" font-family="Helvetica,sans-Serif" font-size="10.00">[6] tapd0828ef0&#45;eb</text>
<polygon fill="#b2f379" stroke="none" points="1060,-517 1060,-540 1154,-540 1154,-517 1060,-517"/>
<polygon fill="none" stroke="black" points="1060,-517 1060,-540 1154,-540 1154,-517 1060,-517"/>
<text text-anchor="start" x="1066" y="-526" font-family="Helvetica,sans-Serif" font-size="10.00">[7] qr&#45;622abba5&#45;e2</text>
<polygon fill="#909090" stroke="none" points="1159,-517 1159,-540 1253,-540 1253,-517 1159,-517"/>
<polygon fill="none" stroke="black" points="1159,-517 1159,-540 1253,-540 1253,-517 1159,-517"/>
<text text-anchor="start" x="1165" y="-526" font-family="Helvetica,sans-Serif" font-size="10.00">[5] tapd6f091a2&#45;c0</text>
<polygon fill="#909090" stroke="none" points="1258,-517 1258,-540 1355,-540 1355,-517 1258,-517"/>
<polygon fill="none" stroke="black" points="1258,-517 1258,-540 1355,-540 1355,-517 1258,-517"/>
<text text-anchor="start" x="1264" y="-526" font-family="Helvetica,sans-Serif" font-size="10.00">[13] qr&#45;361be2af&#45;e5</text>
<polygon fill="#909090" stroke="none" points="1360,-517 1360,-540 1454,-540 1454,-517 1360,-517"/>
<polygon fill="none" stroke="black" points="1360,-517 1360,-540 1454,-540 1454,-517 1360,-517"/>
<text text-anchor="start" x="1366" y="-526" font-family="Helvetica,sans-Serif" font-size="10.00">[5] tapd6f091a2&#45;c0</text>
<polygon fill="#909090" stroke="none" points="1459,-517 1459,-540 1558,-540 1558,-517 1459,-517"/>
<polygon fill="none" stroke="black" points="1459,-517 1459,-540 1558,-540 1558,-517 1459,-517"/>
<text text-anchor="start" x="1465" y="-526" font-family="Helvetica,sans-Serif" font-size="10.00">[14] qr&#45;b66b902a&#45;36</text>
<polygon fill="#909090" stroke="none" points="1563,-517 1563,-540 1657,-540 1657,-517 1563,-517"/>
<polygon fill="none" stroke="black" points="1563,-517 1563,-540 1657,-540 1657,-517 1563,-517"/>
<text text-anchor="start" x="1569" y="-526" font-family="Helvetica,sans-Serif" font-size="10.00">[6] tapd0828ef0&#45;eb</text>
<polygon fill="#909090" stroke="none" points="861,-489 861,-512 956,-512 956,-489 861,-489"/>
<polygon fill="none" stroke="black" points="861,-489 861,-512 956,-512 956,-489 861,-489"/>
<text text-anchor="start" x="882.5" y="-498" font-family="Helvetica,sans-Serif" font-size="10.00">VLAN tag:3</text>
<polygon fill="#909090" stroke="none" points="961,-489 961,-512 1055,-512 1055,-489 961,-489"/>
<polygon fill="none" stroke="black" points="961,-489 961,-512 1055,-512 1055,-489 961,-489"/>
<text text-anchor="start" x="982" y="-498" font-family="Helvetica,sans-Serif" font-size="10.00">VLAN tag:3</text>
<polygon fill="#909090" stroke="none" points="1060,-489 1060,-512 1154,-512 1154,-489 1060,-489"/>
<polygon fill="none" stroke="black" points="1060,-489 1060,-512 1154,-512 1154,-489 1060,-489"/>
<text text-anchor="start" x="1081" y="-498" font-family="Helvetica,sans-Serif" font-size="10.00">VLAN tag:2</text>
<polygon fill="#909090" stroke="none" points="1159,-489 1159,-512 1253,-512 1253,-489 1159,-489"/>
<polygon fill="none" stroke="black" points="1159,-489 1159,-512 1253,-512 1253,-489 1159,-489"/>
<text text-anchor="start" x="1180" y="-498" font-family="Helvetica,sans-Serif" font-size="10.00">VLAN tag:2</text>
<polygon fill="#909090" stroke="none" points="1258,-489 1258,-512 1355,-512 1355,-489 1258,-489"/>
<polygon fill="none" stroke="black" points="1258,-489 1258,-512 1355,-512 1355,-489 1258,-489"/>
<text text-anchor="start" x="1280.5" y="-498" font-family="Helvetica,sans-Serif" font-size="10.00">VLAN tag:2</text>
<polygon fill="#909090" stroke="none" points="1360,-489 1360,-512 1454,-512 1454,-489 1360,-489"/>
<polygon fill="none" stroke="black" points="1360,-489 1360,-512 1454,-512 1454,-489 1360,-489"/>
<text text-anchor="start" x="1381" y="-498" font-family="Helvetica,sans-Serif" font-size="10.00">VLAN tag:2</text>
<polygon fill="#909090" stroke="none" points="1459,-489 1459,-512 1558,-512 1558,-489 1459,-489"/>
<polygon fill="none" stroke="black" points="1459,-489 1459,-512 1558,-512 1558,-489 1459,-489"/>
<text text-anchor="start" x="1482.5" y="-498" font-family="Helvetica,sans-Serif" font-size="10.00">VLAN tag:3</text>
<polygon fill="#909090" stroke="none" points="1563,-489 1563,-512 1657,-512 1657,-489 1563,-489"/>
<polygon fill="none" stroke="black" points="1563,-489 1563,-512 1657,-512 1657,-489 1563,-489"/>
<text text-anchor="start" x="1584" y="-498" font-family="Helvetica,sans-Serif" font-size="10.00">VLAN tag:3</text>
<polygon fill="#909090" stroke="none" points="861,-461 861,-484 956,-484 956,-461 861,-461"/>
<polygon fill="none" stroke="black" points="861,-461 861,-484 956,-484 956,-461 861,-461"/>
<text text-anchor="start" x="884" y="-470" font-family="Helvetica,sans-Serif" font-size="10.00">10.0.3.1/24</text>
<polygon fill="#909090" stroke="none" points="961,-461 961,-484 1055,-484 1055,-461 961,-461"/>
<polygon fill="none" stroke="black" points="961,-461 961,-484 1055,-484 1055,-461 961,-461"/>
<text text-anchor="start" x="983.5" y="-470" font-family="Helvetica,sans-Serif" font-size="10.00">10.0.3.2/24</text>
<polygon fill="#909090" stroke="none" points="1060,-461 1060,-484 1154,-484 1154,-461 1060,-461"/>
<polygon fill="none" stroke="black" points="1060,-461 1060,-484 1154,-484 1154,-461 1060,-461"/>
<text text-anchor="start" x="1082.5" y="-470" font-family="Helvetica,sans-Serif" font-size="10.00">10.0.2.1/24</text>
<polygon fill="#909090" stroke="none" points="1159,-461 1159,-484 1253,-484 1253,-461 1159,-461"/>
<polygon fill="none" stroke="black" points="1159,-461 1159,-484 1253,-484 1253,-461 1159,-461"/>
<text text-anchor="start" x="1181.5" y="-470" font-family="Helvetica,sans-Serif" font-size="10.00">10.0.2.2/24</text>
<polygon fill="#909090" stroke="none" points="1258,-461 1258,-484 1355,-484 1355,-461 1258,-461"/>
<polygon fill="none" stroke="black" points="1258,-461 1258,-484 1355,-484 1355,-461 1258,-461"/>
<text text-anchor="start" x="1282" y="-470" font-family="Helvetica,sans-Serif" font-size="10.00">10.0.2.5/24</text>
<polygon fill="#909090" stroke="none" points="1360,-461 1360,-484 1454,-484 1454,-461 1360,-461"/>
<polygon fill="none" stroke="black" points="1360,-461 1360,-484 1454,-484 1454,-461 1360,-461"/>
<text text-anchor="start" x="1382.5" y="-470" font-family="Helvetica,sans-Serif" font-size="10.00">10.0.2.2/24</text>
<polygon fill="#909090" stroke="none" points="1459,-461 1459,-484 1558,-484 1558,-461 1459,-461"/>
<polygon fill="none" stroke="black" points="1459,-461 1459,-484 1558,-484 1558,-461 1459,-461"/>
<text text-anchor="start" x="1484" y="-470" font-family="Helvetica,sans-Serif" font-size="10.00">10.0.3.5/24</text>
<polygon fill="#909090" stroke="none" points="1563,-461 1563,-484 1657,-484 1657,-461 1563,-461"/>
<polygon fill="none" stroke="black" points="1563,-461 1563,-484 1657,-484 1657,-461 1563,-461"/>
<text text-anchor="start" x="1585.5" y="-470" font-family="Helvetica,sans-Serif" font-size="10.00">10.0.3.2/24</text>
<polygon fill="#909090" stroke="none" points="861,-433 861,-456 1055,-456 1055,-433 861,-433"/>
<polygon fill="none" stroke="black" points="861,-433 861,-456 1055,-456 1055,-433 861,-433"/>
<text text-anchor="start" x="940.5" y="-442" font-family="Helvetica,sans-Serif" font-size="10.00">private2</text>
<polygon fill="#909090" stroke="none" points="1060,-433 1060,-456 1253,-456 1253,-433 1060,-433"/>
<polygon fill="none" stroke="black" points="1060,-433 1060,-456 1253,-456 1253,-433 1060,-433"/>
<text text-anchor="start" x="1139" y="-442" font-family="Helvetica,sans-Serif" font-size="10.00">private1</text>
<polygon fill="#909090" stroke="none" points="1258,-433 1258,-456 1454,-456 1454,-433 1258,-433"/>
<polygon fill="none" stroke="black" points="1258,-433 1258,-456 1454,-456 1454,-433 1258,-433"/>
<text text-anchor="start" x="1338.5" y="-442" font-family="Helvetica,sans-Serif" font-size="10.00">private1</text>
<polygon fill="#909090" stroke="none" points="1459,-433 1459,-456 1657,-456 1657,-433 1459,-433"/>
<polygon fill="none" stroke="black" points="1459,-433 1459,-456 1657,-456 1657,-433 1459,-433"/>
<text text-anchor="start" x="1540.5" y="-442" font-family="Helvetica,sans-Serif" font-size="10.00">private2</text>
<polygon fill="#909090" stroke="none" points="861,-405 861,-428 1253,-428 1253,-405 861,-405"/>
<polygon fill="none" stroke="black" points="861,-405 861,-428 1253,-428 1253,-405 861,-405"/>
<text text-anchor="start" x="1041.5" y="-414" font-family="Helvetica,sans-Serif" font-size="10.00">router1</text>
<polygon fill="#909090" stroke="none" points="1258,-405 1258,-428 1657,-428 1657,-405 1258,-405"/>
<polygon fill="none" stroke="black" points="1258,-405 1258,-428 1657,-428 1657,-405 1258,-405"/>
<text text-anchor="start" x="1442" y="-414" font-family="Helvetica,sans-Serif" font-size="10.00">router2</text>
<polygon fill="#909090" stroke="none" points="861,-377 861,-400 1657,-400 1657,-377 861,-377"/>
<polygon fill="none" stroke="black" points="861,-377 861,-400 1657,-400 1657,-377 861,-377"/>
<text text-anchor="start" x="1231.5" y="-386" font-family="Helvetica,sans-Serif" font-size="10.00">[1] patch&#45;tun</text>
</g>
<!-- br_ex&#45;&gt;network_br_int -->
<g id="edge19" class="edge"><title>br_ex:qg_e2b1b0d3_a8:s&#45;&gt;network_br_int:qr_361be2af_e5:n</title>
<path fill="none" stroke="#909090" stroke-width="4" d="M1257,-656C1257,-600.267 1307,-596.733 1307,-541"/>
</g>
<!-- br_ex&#45;&gt;network_br_int -->
<g id="edge20" class="edge"><title>br_ex:qg_e2b1b0d3_a8:s&#45;&gt;network_br_int:qr_b66b902a_36:n</title>
<path fill="none" stroke="#909090" stroke-width="4" d="M1257,-656C1257,-532.889 1509,-664.111 1509,-541"/>
</g>
<!-- br_ex&#45;&gt;network_br_int -->
<g id="edge21" class="edge"><title>br_ex:qg_eb8796fb_83:s&#45;&gt;network_br_int:qr_09a15e37_ca:n</title>
<path fill="none" stroke="#909090" stroke-width="4" d="M1156,-656C1156,-534.504 908,-662.496 908,-541"/>
</g>
<!-- br_ex&#45;&gt;network_br_int -->
<g id="edge22" class="edge"><title>br_ex:qg_eb8796fb_83:s&#45;&gt;network_br_int:qr_622abba5_e2:n</title>
<path fill="none" stroke="#909090" stroke-width="4" d="M1156,-656C1156,-600.443 1107,-596.557 1107,-541"/>
</g>
<!-- network_br_tun -->
<g id="node9" class="node"><title>network_br_tun</title>
<polygon fill="white" stroke="none" points="1205.5,-204 1205.5,-264 1310.5,-264 1310.5,-204 1205.5,-204"/>
<polygon fill="white" stroke="none" points="1211,-237 1211,-259 1306,-259 1306,-237 1211,-237"/>
<text text-anchor="start" x="1232.5" y="-245.5" font-family="Helvetica,sans-Serif" font-size="10.00">OVS br_tun</text>
<polygon fill="#909090" stroke="none" points="1211,-209 1211,-232 1306,-232 1306,-209 1211,-209"/>
<polygon fill="none" stroke="black" points="1211,-209 1211,-232 1306,-232 1306,-209 1211,-209"/>
<text text-anchor="start" x="1232.5" y="-218" font-family="Helvetica,sans-Serif" font-size="10.00">[1] patch&#45;int</text>
</g>
<!-- network_br_int&#45;&gt;network_br_tun -->
<g id="edge18" class="edge"><title>network_br_int:patch_tun:s&#45;&gt;network_br_tun:patch_int:n</title>
<path fill="none" stroke="#909090" stroke-width="4" d="M1259,-376C1259,-312.444 1259,-296.556 1259,-233"/>
</g>
</g>
</svg>
