<?xml version="1.0" encoding="UTF-8" standalone="no"?>
<!DOCTYPE svg PUBLIC "-//W3C//DTD SVG 1.1//EN"
 "http://www.w3.org/Graphics/SVG/1.1/DTD/svg11.dtd">
<!-- Generated by graphviz version 2.36.0 (20140111.2315)
 -->
<!-- Title: DON_compute Pages: 1 -->
<svg width="365pt" height="620pt"
 viewBox="0.00 0.00 365.00 620.00" xmlns="http://www.w3.org/2000/svg" xmlns:xlink="http://www.w3.org/1999/xlink">
<g id="graph0" class="graph" transform="scale(1 1) rotate(0) translate(4 616)">
<title>DON_compute</title>
<polygon fill="white" stroke="none" points="-4,4 -4,-616 361,-616 361,4 -4,4"/>
<g id="clust1" class="cluster"><title>cluster_ComputeNode</title>
<polygon fill="none" stroke="black" points="204,-548 204,-604 324,-604 324,-548 204,-548"/>
</g>
<g id="clust2" class="cluster"><title>cluster_Nova</title>
<polygon fill="lightgrey" stroke="black" points="87,-344 87,-500 349,-500 349,-344 87,-344"/>
</g>
<g id="clust3" class="cluster"><title>cluster_VMs</title>
<polygon fill="lightgrey" stroke="black" points="187,-352 187,-492 341,-492 341,-352 187,-352"/>
</g>
<g id="clust4" class="cluster"><title>cluster_LinuxBridge</title>
<polygon fill="lightgrey" stroke="black" points="95,-396 95,-448 179,-448 179,-396 95,-396"/>
</g>
<g id="clust5" class="cluster"><title>cluster_OVS</title>
<polygon fill="lightgrey" stroke="black" points="8,-8 8,-304 266,-304 266,-8 8,-8"/>
</g>
<g id="clust6" class="cluster"><title>cluster_compute_br_int</title>
<polygon fill="lightgrey" stroke="black" points="16,-156 16,-296 258,-296 258,-156 16,-156"/>
</g>
<g id="clust7" class="cluster"><title>cluster_compute_br_tun</title>
<polygon fill="lightgrey" stroke="black" points="81,-16 81,-100 193,-100 193,-16 81,-16"/>
</g>
<!-- ComputeNode -->
<g id="node1" class="node"><title>ComputeNode</title>
<polygon fill="red" stroke="none" points="220,-560 220,-592 308,-592 308,-560 220,-560"/>
<polygon fill="yellow" stroke="none" points="225,-565 225,-587 303,-587 303,-565 225,-565"/>
<text text-anchor="start" x="230.5" y="-573.5" font-family="Helvetica,sans-Serif" font-size="10.00">Compute Node</text>
</g>
<!-- VMs -->
<g id="node2" class="node"><title>VMs</title>
<polygon fill="white" stroke="none" points="203,-364 203,-480 325,-480 325,-364 203,-364"/>
<polygon fill="white" stroke="none" points="208,-453 208,-475 320,-475 320,-453 208,-453"/>
<text text-anchor="start" x="253.5" y="-461.5" font-family="Helvetica,sans-Serif" font-size="10.00">VMs</text>
<polygon fill="#ff9933" stroke="none" points="208,-425 208,-448 262,-448 262,-425 208,-425"/>
<polygon fill="none" stroke="black" points="208,-425 208,-448 262,-448 262,-425 208,-425"/>
<text text-anchor="start" x="225.5" y="-434" font-family="Helvetica,sans-Serif" font-size="10.00">vm1</text>
<polygon fill="#ff9933" stroke="none" points="267,-425 267,-448 320,-448 320,-425 267,-425"/>
<polygon fill="none" stroke="black" points="267,-425 267,-448 320,-448 320,-425 267,-425"/>
<text text-anchor="start" x="284" y="-434" font-family="Helvetica,sans-Serif" font-size="10.00">vm2</text>
<polygon fill="#c079f3" stroke="none" points="208,-397 208,-420 262,-420 262,-397 208,-397"/>
<polygon fill="none" stroke="black" points="208,-397 208,-420 262,-420 262,-397 208,-397"/>
<text text-anchor="start" x="217.5" y="-406" font-family="Helvetica,sans-Serif" font-size="10.00">private1</text>
<polygon fill="#c079f3" stroke="none" points="267,-397 267,-420 320,-420 320,-397 267,-397"/>
<polygon fill="none" stroke="black" points="267,-397 267,-420 320,-420 320,-397 267,-397"/>
<text text-anchor="start" x="276" y="-406" font-family="Helvetica,sans-Serif" font-size="10.00">private1</text>
<polygon fill="#c079f3" stroke="none" points="208,-369 208,-392 262,-392 262,-369 208,-369"/>
<polygon fill="none" stroke="black" points="208,-369 208,-392 262,-392 262,-369 208,-369"/>
<text text-anchor="start" x="214.5" y="-378" font-family="Helvetica,sans-Serif" font-size="10.00">10.10.0.3</text>
<polygon fill="#c079f3" stroke="none" points="267,-369 267,-392 320,-392 320,-369 267,-369"/>
<polygon fill="none" stroke="black" points="267,-369 267,-392 320,-392 320,-369 267,-369"/>
<text text-anchor="start" x="273" y="-378" font-family="Helvetica,sans-Serif" font-size="10.00">10.10.0.4</text>
</g>
<!-- ComputeNode&#45;&gt;VMs -->
<!-- LinuxBridge -->
<g id="node3" class="node"><title>LinuxBridge</title>
<text text-anchor="middle" x="137" y="-419.5" font-family="Helvetica,sans-Serif" font-size="10.00">LinuxBridge</text>
</g>
<!-- compute_br_int -->
<g id="node4" class="node"><title>compute_br_int</title>
<polygon fill="white" stroke="none" points="32,-168 32,-284 242,-284 242,-168 32,-168"/>
<polygon fill="white" stroke="none" points="37,-257 37,-279 237,-279 237,-257 37,-257"/>
<text text-anchor="start" x="112.5" y="-265.5" font-family="Helvetica,sans-Serif" font-size="10.00">OVS br_int</text>
<polygon fill="#c079f3" stroke="none" points="37,-229 37,-252 136,-252 136,-229 37,-229"/>
<polygon fill="none" stroke="black" points="37,-229 37,-252 136,-252 136,-229 37,-229"/>
<text text-anchor="start" x="43.5" y="-238" font-family="Helvetica,sans-Serif" font-size="10.00">[6] qvo8aa60600&#45;7b</text>
<polygon fill="#c079f3" stroke="none" points="141,-229 141,-252 237,-252 237,-229 141,-229"/>
<polygon fill="none" stroke="black" points="141,-229 141,-252 237,-252 237,-229 141,-229"/>
<text text-anchor="start" x="147" y="-238" font-family="Helvetica,sans-Serif" font-size="10.00">[7] qvo71ac5bef&#45;7c</text>
<polygon fill="#c079f3" stroke="none" points="37,-201 37,-224 136,-224 136,-201 37,-201"/>
<polygon fill="none" stroke="black" points="37,-201 37,-224 136,-224 136,-201 37,-201"/>
<text text-anchor="start" x="60.5" y="-210" font-family="Helvetica,sans-Serif" font-size="10.00">VLAN tag:2</text>
<polygon fill="#c079f3" stroke="none" points="141,-201 141,-224 237,-224 237,-201 141,-201"/>
<polygon fill="none" stroke="black" points="141,-201 141,-224 237,-224 237,-201 141,-201"/>
<text text-anchor="start" x="163" y="-210" font-family="Helvetica,sans-Serif" font-size="10.00">VLAN tag:2</text>
<polygon fill="#ffcc00" stroke="none" points="37,-173 37,-196 237,-196 237,-173 37,-173"/>
<polygon fill="none" stroke="black" points="37,-173 37,-196 237,-196 237,-173 37,-173"/>
<text text-anchor="start" x="109.5" y="-182" font-family="Helvetica,sans-Serif" font-size="10.00">[1] patch&#45;tun</text>
</g>
<!-- LinuxBridge&#45;&gt;compute_br_int -->
<g id="edge2" class="edge"><title>LinuxBridge:qvb8aa60600_7b:s&#45;&gt;compute_br_int:qvo8aa60600_7b:n</title>
<path fill="none" stroke="#0066cc" stroke-width="4" d="M128.116,-403.866C113.505,-374.046 86,-310.304 86,-253"/>
</g>
<!-- LinuxBridge&#45;&gt;compute_br_int -->
<g id="edge3" class="edge"><title>LinuxBridge:qvb71ac5bef_7c:s&#45;&gt;compute_br_int:qvo71ac5bef_7c:n</title>
<path fill="none" stroke="#0066cc" stroke-width="4" d="M146.058,-403.886C160.956,-374.097 189,-310.4 189,-253"/>
</g>
<!-- compute_br_tun -->
<g id="node5" class="node"><title>compute_br_tun</title>
<polygon fill="white" stroke="none" points="97,-28 97,-88 177,-88 177,-28 97,-28"/>
<polygon fill="white" stroke="none" points="102,-61 102,-83 172,-83 172,-61 102,-61"/>
<text text-anchor="start" x="111" y="-69.5" font-family="Helvetica,sans-Serif" font-size="10.00">OVS br_tun</text>
<polygon fill="#ffcc00" stroke="none" points="102,-33 102,-56 172,-56 172,-33 102,-33"/>
<polygon fill="none" stroke="black" points="102,-33 102,-56 172,-56 172,-33 102,-33"/>
<text text-anchor="start" x="111" y="-42" font-family="Helvetica,sans-Serif" font-size="10.00">[1] patch&#45;int</text>
</g>
<!-- compute_br_int&#45;&gt;compute_br_tun -->
<g id="edge4" class="edge"><title>compute_br_int:patch_tun:s&#45;&gt;compute_br_tun:patch_int:n</title>
<path fill="none" stroke="#0066cc" stroke-width="4" d="M137,-172C137,-120.889 137,-108.111 137,-57"/>
</g>
</g>
</svg>
