<?xml version="1.0" encoding="UTF-8" standalone="no"?>
<!DOCTYPE svg PUBLIC "-//W3C//DTD SVG 1.1//EN"
 "http://www.w3.org/Graphics/SVG/1.1/DTD/svg11.dtd">
<!-- Generated by graphviz version 2.36.0 (20140111.2315)
 -->
<!-- Title: DON_DON Pages: 1 -->
<svg width="576pt" height="720pt"
 viewBox="0.00 0.00 576.00 720.00" xmlns="http://www.w3.org/2000/svg" xmlns:xlink="http://www.w3.org/1999/xlink">
<g id="graph0" class="graph" transform="scale(1 1) rotate(0) translate(4 716)">
<title>DON_DON</title>
<polygon fill="white" stroke="none" points="-4,4 -4,-716 572,-716 572,4 -4,4"/>
<g id="clust1" class="cluster"><title>cluster_DONComputeNode</title>
<polygon fill="lightgrey" stroke="black" points="8,-8 8,-704 286,-704 286,-8 8,-8"/>
</g>
<g id="clust2" class="cluster"><title>cluster_ComputeNode</title>
<polygon fill="lightgrey" stroke="black" points="133,-640 133,-696 253,-696 253,-640 133,-640"/>
</g>
<g id="clust3" class="cluster"><title>cluster_Nova</title>
<polygon fill="lightgrey" stroke="black" points="16,-436 16,-592 278,-592 278,-436 16,-436"/>
</g>
<g id="clust4" class="cluster"><title>cluster_VMs</title>
<polygon fill="lightgrey" stroke="black" points="116,-444 116,-584 270,-584 270,-444 116,-444"/>
</g>
<g id="clust5" class="cluster"><title>cluster_LinuxBridge</title>
<polygon fill="lightgrey" stroke="black" points="24,-488 24,-540 108,-540 108,-488 24,-488"/>
</g>
<g id="clust6" class="cluster"><title>cluster_OVS</title>
<polygon fill="lightgrey" stroke="black" points="16,-16 16,-354 274,-354 274,-16 16,-16"/>
</g>
<g id="clust7" class="cluster"><title>cluster_compute_br_int</title>
<polygon fill="lightgrey" stroke="black" points="24,-206 24,-346 266,-346 266,-206 24,-206"/>
</g>
<g id="clust8" class="cluster"><title>cluster_compute_br_tun</title>
<polygon fill="lightgrey" stroke="black" points="89,-24 89,-108 201,-108 201,-24 89,-24"/>
</g>
<g id="clust9" class="cluster"><title>cluster_DONNetworkNode</title>
<polygon fill="lightgrey" stroke="black" points="294,-8 294,-704 560,-704 560,-8 294,-8"/>
</g>
<g id="clust11" class="cluster"><title>cluster_OVS</title>
<polygon fill="lightgrey" stroke="black" points="302,-16 302,-592 552,-592 552,-16 302,-16"/>
</g>
<g id="clust12" class="cluster"><title>cluster_br_ex</title>
<polygon fill="lightgrey" stroke="black" points="310,-444 310,-584 448,-584 448,-444 310,-444"/>
</g>
<g id="clust13" class="cluster"><title>cluster_network_br_int</title>
<polygon fill="lightgrey" stroke="black" points="310,-164 310,-388 544,-388 544,-164 310,-164"/>
</g>
<g id="clust14" class="cluster"><title>cluster_network_br_tun</title>
<polygon fill="lightgrey" stroke="black" points="372,-24 372,-108 484,-108 484,-24 372,-24"/>
</g>
<g id="clust10" class="cluster"><title>cluster_NetworkNode</title>
<polygon fill="lightgrey" stroke="black" points="320,-640 320,-696 438,-696 438,-640 320,-640"/>
</g>
<!-- ComputeNode -->
<g id="node1" class="node"><title>ComputeNode</title>
<polygon fill="red" stroke="none" points="149,-652 149,-684 237,-684 237,-652 149,-652"/>
<polygon fill="yellow" stroke="none" points="154,-657 154,-679 232,-679 232,-657 154,-657"/>
<text text-anchor="start" x="159.5" y="-665.5" font-family="Helvetica,sans-Serif" font-size="10.00">Compute Node</text>
</g>
<!-- VMs -->
<g id="node2" class="node"><title>VMs</title>
<polygon fill="white" stroke="none" points="132,-456 132,-572 254,-572 254,-456 132,-456"/>
<polygon fill="white" stroke="none" points="137,-545 137,-567 249,-567 249,-545 137,-545"/>
<text text-anchor="start" x="182.5" y="-553.5" font-family="Helvetica,sans-Serif" font-size="10.00">VMs</text>
<polygon fill="#ff9933" stroke="none" points="137,-517 137,-540 191,-540 191,-517 137,-517"/>
<polygon fill="none" stroke="black" points="137,-517 137,-540 191,-540 191,-517 137,-517"/>
<text text-anchor="start" x="154.5" y="-526" font-family="Helvetica,sans-Serif" font-size="10.00">vm1</text>
<polygon fill="#ff9933" stroke="none" points="196,-517 196,-540 249,-540 249,-517 196,-517"/>
<polygon fill="none" stroke="black" points="196,-517 196,-540 249,-540 249,-517 196,-517"/>
<text text-anchor="start" x="213" y="-526" font-family="Helvetica,sans-Serif" font-size="10.00">vm2</text>
<polygon fill="#c079f3" stroke="none" points="137,-489 137,-512 191,-512 191,-489 137,-489"/>
<polygon fill="none" stroke="black" points="137,-489 137,-512 191,-512 191,-489 137,-489"/>
<text text-anchor="start" x="146.5" y="-498" font-family="Helvetica,sans-Serif" font-size="10.00">private1</text>
<polygon fill="#c079f3" stroke="none" points="196,-489 196,-512 249,-512 249,-489 196,-489"/>
<polygon fill="none" stroke="black" points="196,-489 196,-512 249,-512 249,-489 196,-489"/>
<text text-anchor="start" x="205" y="-498" font-family="Helvetica,sans-Serif" font-size="10.00">private1</text>
<polygon fill="#c079f3" stroke="none" points="137,-461 137,-484 191,-484 191,-461 137,-461"/>
<polygon fill="none" stroke="black" points="137,-461 137,-484 191,-484 191,-461 137,-461"/>
<text text-anchor="start" x="143.5" y="-470" font-family="Helvetica,sans-Serif" font-size="10.00">10.10.0.3</text>
<polygon fill="#c079f3" stroke="none" points="196,-461 196,-484 249,-484 249,-461 196,-461"/>
<polygon fill="none" stroke="black" points="196,-461 196,-484 249,-484 249,-461 196,-461"/>
<text text-anchor="start" x="202" y="-470" font-family="Helvetica,sans-Serif" font-size="10.00">10.10.0.4</text>
</g>
<!-- ComputeNode&#45;&gt;VMs -->
<!-- LinuxBridge -->
<g id="node3" class="node"><title>LinuxBridge</title>
<text text-anchor="middle" x="66" y="-511.5" font-family="Helvetica,sans-Serif" font-size="10.00">LinuxBridge</text>
</g>
<!-- compute_br_int -->
<g id="node4" class="node"><title>compute_br_int</title>
<polygon fill="white" stroke="none" points="40,-218 40,-334 250,-334 250,-218 40,-218"/>
<polygon fill="white" stroke="none" points="45,-307 45,-329 245,-329 245,-307 45,-307"/>
<text text-anchor="start" x="120.5" y="-315.5" font-family="Helvetica,sans-Serif" font-size="10.00">OVS br_int</text>
<polygon fill="#c079f3" stroke="none" points="45,-279 45,-302 144,-302 144,-279 45,-279"/>
<polygon fill="none" stroke="black" points="45,-279 45,-302 144,-302 144,-279 45,-279"/>
<text text-anchor="start" x="51.5" y="-288" font-family="Helvetica,sans-Serif" font-size="10.00">[6] qvo8aa60600&#45;7b</text>
<polygon fill="#c079f3" stroke="none" points="149,-279 149,-302 245,-302 245,-279 149,-279"/>
<polygon fill="none" stroke="black" points="149,-279 149,-302 245,-302 245,-279 149,-279"/>
<text text-anchor="start" x="155" y="-288" font-family="Helvetica,sans-Serif" font-size="10.00">[7] qvo71ac5bef&#45;7c</text>
<polygon fill="#c079f3" stroke="none" points="45,-251 45,-274 144,-274 144,-251 45,-251"/>
<polygon fill="none" stroke="black" points="45,-251 45,-274 144,-274 144,-251 45,-251"/>
<text text-anchor="start" x="68.5" y="-260" font-family="Helvetica,sans-Serif" font-size="10.00">VLAN tag:2</text>
<polygon fill="#c079f3" stroke="none" points="149,-251 149,-274 245,-274 245,-251 149,-251"/>
<polygon fill="none" stroke="black" points="149,-251 149,-274 245,-274 245,-251 149,-251"/>
<text text-anchor="start" x="171" y="-260" font-family="Helvetica,sans-Serif" font-size="10.00">VLAN tag:2</text>
<polygon fill="#ffcc00" stroke="none" points="45,-223 45,-246 245,-246 245,-223 45,-223"/>
<polygon fill="none" stroke="black" points="45,-223 45,-246 245,-246 245,-223 45,-223"/>
<text text-anchor="start" x="117.5" y="-232" font-family="Helvetica,sans-Serif" font-size="10.00">[1] patch&#45;tun</text>
</g>
<!-- LinuxBridge&#45;&gt;compute_br_int -->
<g id="edge2" class="edge"><title>LinuxBridge:qvb8aa60600_7b:s&#45;&gt;compute_br_int:qvo8aa60600_7b:n</title>
<path fill="none" stroke="#0066cc" stroke-width="4" d="M69.8346,-495.954C77.5031,-460.323 94,-375.275 94,-303"/>
</g>
<!-- LinuxBridge&#45;&gt;compute_br_int -->
<g id="edge3" class="edge"><title>LinuxBridge:qvb71ac5bef_7c:s&#45;&gt;compute_br_int:qvo71ac5bef_7c:n</title>
<path fill="none" stroke="#0066cc" stroke-width="4" d="M76.0841,-495.784C85.3069,-480.12 99.3923,-456.399 112,-436 148.882,-376.326 197,-373.152 197,-303"/>
</g>
<!-- compute_br_tun -->
<g id="node5" class="node"><title>compute_br_tun</title>
<polygon fill="white" stroke="none" points="105,-36 105,-96 185,-96 185,-36 105,-36"/>
<polygon fill="white" stroke="none" points="110,-69 110,-91 180,-91 180,-69 110,-69"/>
<text text-anchor="start" x="119" y="-77.5" font-family="Helvetica,sans-Serif" font-size="10.00">OVS br_tun</text>
<polygon fill="#ffcc00" stroke="none" points="110,-41 110,-64 180,-64 180,-41 110,-41"/>
<polygon fill="none" stroke="black" points="110,-41 110,-64 180,-64 180,-41 110,-41"/>
<text text-anchor="start" x="119" y="-50" font-family="Helvetica,sans-Serif" font-size="10.00">[1] patch&#45;int</text>
</g>
<!-- compute_br_int&#45;&gt;compute_br_tun -->
<g id="edge4" class="edge"><title>compute_br_int:patch_tun:s&#45;&gt;compute_br_tun:patch_int:n</title>
<path fill="none" stroke="#0066cc" stroke-width="4" d="M145,-222C145,-152.222 145,-134.778 145,-65"/>
</g>
<!-- NetworkNode -->
<g id="node6" class="node"><title>NetworkNode</title>
<polygon fill="red" stroke="none" points="336.5,-652 336.5,-684 421.5,-684 421.5,-652 336.5,-652"/>
<polygon fill="yellow" stroke="none" points="342,-657 342,-679 417,-679 417,-657 342,-657"/>
<text text-anchor="start" x="347.5" y="-665.5" font-family="Helvetica,sans-Serif" font-size="10.00">Network Node</text>
</g>
<!-- br_ex -->
<g id="node7" class="node"><title>br_ex</title>
<polygon fill="white" stroke="none" points="326.5,-456 326.5,-572 431.5,-572 431.5,-456 326.5,-456"/>
<polygon fill="white" stroke="none" points="332,-545 332,-567 427,-567 427,-545 332,-545"/>
<text text-anchor="start" x="355" y="-553.5" font-family="Helvetica,sans-Serif" font-size="10.00">OVS br_ex</text>
<polygon fill="#ff9933" stroke="none" points="332,-517 332,-540 427,-540 427,-517 332,-517"/>
<polygon fill="none" stroke="black" points="332,-517 332,-540 427,-540 427,-517 332,-517"/>
<text text-anchor="start" x="364" y="-526" font-family="Helvetica,sans-Serif" font-size="10.00">router1</text>
<polygon fill="#ff9933" stroke="none" points="332,-489 332,-512 427,-512 427,-489 332,-489"/>
<polygon fill="none" stroke="black" points="332,-489 332,-512 427,-512 427,-489 332,-489"/>
<text text-anchor="start" x="349.5" y="-498" font-family="Helvetica,sans-Serif" font-size="10.00">172.24.4.3/24</text>
<polygon fill="#ff9933" stroke="none" points="332,-461 332,-484 427,-484 427,-461 332,-461"/>
<polygon fill="none" stroke="black" points="332,-461 332,-484 427,-484 427,-461 332,-461"/>
<text text-anchor="start" x="338.5" y="-470" font-family="Helvetica,sans-Serif" font-size="10.00">[2] qg&#45;757bf552&#45;73</text>
</g>
<!-- NetworkNode&#45;&gt;br_ex -->
<!-- network_br_int -->
<g id="node8" class="node"><title>network_br_int</title>
<polygon fill="white" stroke="none" points="326.5,-176 326.5,-376 527.5,-376 527.5,-176 326.5,-176"/>
<polygon fill="white" stroke="none" points="332,-349 332,-371 523,-371 523,-349 332,-349"/>
<text text-anchor="start" x="403" y="-357.5" font-family="Helvetica,sans-Serif" font-size="10.00">OVS br_int</text>
<polygon fill="#c079f3" stroke="none" points="332,-321 332,-344 427,-344 427,-321 332,-321"/>
<polygon fill="none" stroke="black" points="332,-321 332,-344 427,-344 427,-321 332,-321"/>
<text text-anchor="start" x="338.5" y="-330" font-family="Helvetica,sans-Serif" font-size="10.00">[8] qr&#45;43b83157&#45;3b</text>
<polygon fill="#c079f3" stroke="none" points="432,-321 432,-344 523,-344 523,-321 432,-321"/>
<polygon fill="none" stroke="black" points="432,-321 432,-344 523,-344 523,-321 432,-321"/>
<text text-anchor="start" x="438" y="-330" font-family="Helvetica,sans-Serif" font-size="10.00">[5] tap59f90a3b&#45;f5</text>
<polygon fill="#c079f3" stroke="none" points="332,-293 332,-316 427,-316 427,-293 332,-293"/>
<polygon fill="none" stroke="black" points="332,-293 332,-316 427,-316 427,-293 332,-293"/>
<text text-anchor="start" x="353.5" y="-302" font-family="Helvetica,sans-Serif" font-size="10.00">VLAN tag:2</text>
<polygon fill="#c079f3" stroke="none" points="432,-293 432,-316 523,-316 523,-293 432,-293"/>
<polygon fill="none" stroke="black" points="432,-293 432,-316 523,-316 523,-293 432,-293"/>
<text text-anchor="start" x="451.5" y="-302" font-family="Helvetica,sans-Serif" font-size="10.00">VLAN tag:2</text>
<polygon fill="#c079f3" stroke="none" points="332,-265 332,-288 427,-288 427,-265 332,-265"/>
<polygon fill="none" stroke="black" points="332,-265 332,-288 427,-288 427,-265 332,-265"/>
<text text-anchor="start" x="352" y="-274" font-family="Helvetica,sans-Serif" font-size="10.00">10.10.0.1/24</text>
<polygon fill="#c079f3" stroke="none" points="432,-265 432,-288 523,-288 523,-265 432,-265"/>
<polygon fill="none" stroke="black" points="432,-265 432,-288 523,-288 523,-265 432,-265"/>
<text text-anchor="start" x="450" y="-274" font-family="Helvetica,sans-Serif" font-size="10.00">10.10.0.2/24</text>
<polygon fill="#c079f3" stroke="none" points="332,-237 332,-260 523,-260 523,-237 332,-237"/>
<polygon fill="none" stroke="black" points="332,-237 332,-260 523,-260 523,-237 332,-237"/>
<text text-anchor="start" x="410" y="-246" font-family="Helvetica,sans-Serif" font-size="10.00">private1</text>
<polygon fill="#ff9933" stroke="none" points="332,-209 332,-232 523,-232 523,-209 332,-209"/>
<polygon fill="none" stroke="black" points="332,-209 332,-232 523,-232 523,-209 332,-209"/>
<text text-anchor="start" x="412" y="-218" font-family="Helvetica,sans-Serif" font-size="10.00">router1</text>
<polygon fill="#ffcc00" stroke="none" points="332,-181 332,-204 523,-204 523,-181 332,-181"/>
<polygon fill="none" stroke="black" points="332,-181 332,-204 523,-204 523,-181 332,-181"/>
<text text-anchor="start" x="400" y="-190" font-family="Helvetica,sans-Serif" font-size="10.00">[1] patch&#45;tun</text>
</g>
<!-- br_ex&#45;&gt;network_br_int -->
<g id="edge7" class="edge"><title>br_ex:qg_757bf552_73:s&#45;&gt;network_br_int:qr_43b83157_3b:n</title>
<path fill="none" stroke="#0066cc" stroke-width="4" d="M380,-460C380,-408.887 379,-396.113 379,-345"/>
</g>
<!-- network_br_tun -->
<g id="node9" class="node"><title>network_br_tun</title>
<polygon fill="white" stroke="none" points="388,-36 388,-96 468,-96 468,-36 388,-36"/>
<polygon fill="white" stroke="none" points="393,-69 393,-91 463,-91 463,-69 393,-69"/>
<text text-anchor="start" x="402" y="-77.5" font-family="Helvetica,sans-Serif" font-size="10.00">OVS br_tun</text>
<polygon fill="#ffcc00" stroke="none" points="393,-41 393,-64 463,-64 463,-41 393,-41"/>
<polygon fill="none" stroke="black" points="393,-41 393,-64 463,-64 463,-41 393,-41"/>
<text text-anchor="start" x="402" y="-50" font-family="Helvetica,sans-Serif" font-size="10.00">[1] patch&#45;int</text>
</g>
<!-- network_br_int&#45;&gt;network_br_tun -->
<g id="edge6" class="edge"><title>network_br_int:patch_tun:s&#45;&gt;network_br_tun:patch_int:n</title>
<path fill="none" stroke="#0066cc" stroke-width="4" d="M428,-180C428,-128.889 428,-116.111 428,-65"/>
</g>
</g>
</svg>
